<mxfile host="65bd71144e">
    <diagram id="vMrFO9jbqbZJypeMJtQz" name="Page-1">
        <mxGraphModel dx="2220" dy="1663" grid="1" gridSize="10" guides="1" tooltips="1" connect="1" arrows="1" fold="1" page="1" pageScale="1" pageWidth="850" pageHeight="1100" math="0" shadow="0">
            <root>
                <mxCell id="0"/>
                <mxCell id="1" parent="0"/>
                <mxCell id="2" value="&lt;div&gt;&lt;b&gt;&lt;font&gt;&amp;lt;&amp;lt; Entity &amp;gt;&amp;gt;&lt;/font&gt;&lt;/b&gt;&lt;/div&gt;&lt;b&gt;&lt;font&gt;Students&lt;/font&gt;&lt;/b&gt;" style="swimlane;fontStyle=0;childLayout=stackLayout;horizontal=1;startSize=40;fillColor=none;horizontalStack=0;resizeParent=1;resizeParentMax=0;resizeLast=0;collapsible=1;marginBottom=0;whiteSpace=wrap;html=1;fontSize=13;" vertex="1" parent="1">
                    <mxGeometry x="700" y="42" width="180" height="396" as="geometry"/>
                </mxCell>
                <mxCell id="3" value="+ Student_id: string , PK" style="text;strokeColor=#000000;fillColor=#fff2cc;align=left;verticalAlign=top;spacingLeft=4;spacingRight=4;overflow=hidden;rotatable=0;points=[[0,0.5],[1,0.5]];portConstraint=eastwest;whiteSpace=wrap;html=1;fontSize=13;" vertex="1" parent="2">
                    <mxGeometry y="40" width="180" height="26" as="geometry"/>
                </mxCell>
                <mxCell id="4" value="+ Citizen_id: string" style="text;strokeColor=none;fillColor=none;align=left;verticalAlign=top;spacingLeft=4;spacingRight=4;overflow=hidden;rotatable=0;points=[[0,0.5],[1,0.5]];portConstraint=eastwest;whiteSpace=wrap;html=1;fontSize=13;" vertex="1" parent="2">
                    <mxGeometry y="66" width="180" height="26" as="geometry"/>
                </mxCell>
                <mxCell id="5" value="+ Student_Name: string" style="text;strokeColor=none;fillColor=none;align=left;verticalAlign=top;spacingLeft=4;spacingRight=4;overflow=hidden;rotatable=0;points=[[0,0.5],[1,0.5]];portConstraint=eastwest;whiteSpace=wrap;html=1;fontSize=13;" vertex="1" parent="2">
                    <mxGeometry y="92" width="180" height="28" as="geometry"/>
                </mxCell>
                <mxCell id="6" value="+ Email: string" style="text;strokeColor=none;fillColor=none;align=left;verticalAlign=top;spacingLeft=4;spacingRight=4;overflow=hidden;rotatable=0;points=[[0,0.5],[1,0.5]];portConstraint=eastwest;whiteSpace=wrap;html=1;fontSize=13;" vertex="1" parent="2">
                    <mxGeometry y="120" width="180" height="28" as="geometry"/>
                </mxCell>
                <mxCell id="7" value="+ Phone: string" style="text;strokeColor=none;fillColor=none;align=left;verticalAlign=top;spacingLeft=4;spacingRight=4;overflow=hidden;rotatable=0;points=[[0,0.5],[1,0.5]];portConstraint=eastwest;whiteSpace=wrap;html=1;fontSize=13;" vertex="1" parent="2">
                    <mxGeometry y="148" width="180" height="28" as="geometry"/>
                </mxCell>
                <mxCell id="8" value="+ Status: string" style="text;strokeColor=none;fillColor=none;align=left;verticalAlign=top;spacingLeft=4;spacingRight=4;overflow=hidden;rotatable=0;points=[[0,0.5],[1,0.5]];portConstraint=eastwest;whiteSpace=wrap;html=1;fontSize=13;" vertex="1" parent="2">
                    <mxGeometry y="176" width="180" height="28" as="geometry"/>
                </mxCell>
                <mxCell id="9" value="+ Type: string" style="text;strokeColor=none;fillColor=none;align=left;verticalAlign=top;spacingLeft=4;spacingRight=4;overflow=hidden;rotatable=0;points=[[0,0.5],[1,0.5]];portConstraint=eastwest;whiteSpace=wrap;html=1;fontSize=13;" vertex="1" parent="2">
                    <mxGeometry y="204" width="180" height="28" as="geometry"/>
                </mxCell>
                <mxCell id="10" value="+ Academic_Year: int" style="text;strokeColor=none;fillColor=none;align=left;verticalAlign=top;spacingLeft=4;spacingRight=4;overflow=hidden;rotatable=0;points=[[0,0.5],[1,0.5]];portConstraint=eastwest;whiteSpace=wrap;html=1;fontSize=13;" vertex="1" parent="2">
                    <mxGeometry y="232" width="180" height="28" as="geometry"/>
                </mxCell>
                <mxCell id="11" value="+ Gender_id: integer , FK" style="text;strokeColor=#000000;fillColor=#f8cecc;align=left;verticalAlign=top;spacingLeft=4;spacingRight=4;overflow=hidden;rotatable=0;points=[[0,0.5],[1,0.5]];portConstraint=eastwest;whiteSpace=wrap;html=1;fontSize=13;" vertex="1" parent="2">
                    <mxGeometry y="260" width="180" height="26" as="geometry"/>
                </mxCell>
                <mxCell id="12" value="+ Faculty_id: string , FK" style="text;strokeColor=#000000;fillColor=#f8cecc;align=left;verticalAlign=top;spacingLeft=4;spacingRight=4;overflow=hidden;rotatable=0;points=[[0,0.5],[1,0.5]];portConstraint=eastwest;whiteSpace=wrap;html=1;fontSize=13;" vertex="1" parent="2">
                    <mxGeometry y="286" width="180" height="26" as="geometry"/>
                </mxCell>
                <mxCell id="13" value="+ Major_id: string , FK" style="text;strokeColor=#000000;fillColor=#f8cecc;align=left;verticalAlign=top;spacingLeft=4;spacingRight=4;overflow=hidden;rotatable=0;points=[[0,0.5],[1,0.5]];portConstraint=eastwest;whiteSpace=wrap;html=1;fontSize=13;" vertex="1" parent="2">
                    <mxGeometry y="312" width="180" height="28" as="geometry"/>
                </mxCell>
                <mxCell id="14" value="+ Curriculum_id: string , FK" style="text;strokeColor=#000000;fillColor=#f8cecc;align=left;verticalAlign=top;spacingLeft=4;spacingRight=4;overflow=hidden;rotatable=0;points=[[0,0.5],[1,0.5]];portConstraint=eastwest;whiteSpace=wrap;html=1;fontSize=13;" vertex="1" parent="2">
                    <mxGeometry y="340" width="180" height="28" as="geometry"/>
                </mxCell>
                <mxCell id="15" value="+ Profile_id: integer , FK" style="text;strokeColor=#000000;fillColor=#f8cecc;align=left;verticalAlign=top;spacingLeft=4;spacingRight=4;overflow=hidden;rotatable=0;points=[[0,0.5],[1,0.5]];portConstraint=eastwest;whiteSpace=wrap;html=1;fontSize=13;" vertex="1" parent="2">
                    <mxGeometry y="368" width="180" height="28" as="geometry"/>
                </mxCell>
                <mxCell id="16" value="&lt;div&gt;&lt;b&gt;&lt;font&gt;&amp;lt;&amp;lt; Entity &amp;gt;&amp;gt;&lt;/font&gt;&lt;/b&gt;&lt;/div&gt;&lt;b&gt;Majors&lt;/b&gt;" style="swimlane;fontStyle=0;childLayout=stackLayout;horizontal=1;startSize=40;fillColor=none;horizontalStack=0;resizeParent=1;resizeParentMax=0;resizeLast=0;collapsible=1;marginBottom=0;whiteSpace=wrap;html=1;fontSize=13;" vertex="1" parent="1">
                    <mxGeometry x="-1250" y="32" width="180" height="118" as="geometry"/>
                </mxCell>
                <mxCell id="17" value="+ Major_id: string , PK" style="text;strokeColor=#000000;fillColor=#fff2cc;align=left;verticalAlign=top;spacingLeft=4;spacingRight=4;overflow=hidden;rotatable=0;points=[[0,0.5],[1,0.5]];portConstraint=eastwest;whiteSpace=wrap;html=1;fontSize=13;" vertex="1" parent="16">
                    <mxGeometry y="40" width="180" height="26" as="geometry"/>
                </mxCell>
                <mxCell id="18" value="+ Major_Name: string" style="text;strokeColor=none;fillColor=none;align=left;verticalAlign=top;spacingLeft=4;spacingRight=4;overflow=hidden;rotatable=0;points=[[0,0.5],[1,0.5]];portConstraint=eastwest;whiteSpace=wrap;html=1;fontSize=13;" vertex="1" parent="16">
                    <mxGeometry y="66" width="180" height="26" as="geometry"/>
                </mxCell>
                <mxCell id="19" value="+ Faculty_id: string , FK" style="text;strokeColor=#000000;fillColor=#f8cecc;align=left;verticalAlign=top;spacingLeft=4;spacingRight=4;overflow=hidden;rotatable=0;points=[[0,0.5],[1,0.5]];portConstraint=eastwest;whiteSpace=wrap;html=1;fontSize=13;" vertex="1" parent="16">
                    <mxGeometry y="92" width="180" height="26" as="geometry"/>
                </mxCell>
                <mxCell id="20" value="&lt;div&gt;&lt;b&gt;&lt;font&gt;&amp;lt;&amp;lt; Entity &amp;gt;&amp;gt;&lt;/font&gt;&lt;/b&gt;&lt;/div&gt;&lt;b&gt;Faculty&lt;/b&gt;" style="swimlane;fontStyle=0;childLayout=stackLayout;horizontal=1;startSize=40;fillColor=none;horizontalStack=0;resizeParent=1;resizeParentMax=0;resizeLast=0;collapsible=1;marginBottom=0;whiteSpace=wrap;html=1;fontSize=13;" vertex="1" parent="1">
                    <mxGeometry x="-1250" y="-160" width="180" height="92" as="geometry"/>
                </mxCell>
                <mxCell id="21" value="+ Faculty_id: string , PK" style="text;strokeColor=#000000;fillColor=#fff2cc;align=left;verticalAlign=top;spacingLeft=4;spacingRight=4;overflow=hidden;rotatable=0;points=[[0,0.5],[1,0.5]];portConstraint=eastwest;whiteSpace=wrap;html=1;fontSize=13;" vertex="1" parent="20">
                    <mxGeometry y="40" width="180" height="26" as="geometry"/>
                </mxCell>
                <mxCell id="22" value="+ Faculty_Name: string" style="text;strokeColor=none;fillColor=none;align=left;verticalAlign=top;spacingLeft=4;spacingRight=4;overflow=hidden;rotatable=0;points=[[0,0.5],[1,0.5]];portConstraint=eastwest;whiteSpace=wrap;html=1;fontSize=13;" vertex="1" parent="20">
                    <mxGeometry y="66" width="180" height="26" as="geometry"/>
                </mxCell>
                <mxCell id="23" value="&lt;div&gt;&lt;b&gt;&lt;font&gt;&amp;lt;&amp;lt; Entity &amp;gt;&amp;gt;&lt;/font&gt;&lt;/b&gt;&lt;/div&gt;&lt;b&gt;Curriculums&lt;/b&gt;" style="swimlane;fontStyle=0;childLayout=stackLayout;horizontal=1;startSize=40;fillColor=none;horizontalStack=0;resizeParent=1;resizeParentMax=0;resizeLast=0;collapsible=1;marginBottom=0;whiteSpace=wrap;html=1;fontSize=13;" vertex="1" parent="1">
                    <mxGeometry x="330" y="42" width="180" height="204" as="geometry"/>
                </mxCell>
                <mxCell id="24" value="+ Curriculum_id: string , PK" style="text;strokeColor=#000000;fillColor=#fff2cc;align=left;verticalAlign=top;spacingLeft=4;spacingRight=4;overflow=hidden;rotatable=0;points=[[0,0.5],[1,0.5]];portConstraint=eastwest;whiteSpace=wrap;html=1;fontSize=13;" vertex="1" parent="23">
                    <mxGeometry y="40" width="180" height="26" as="geometry"/>
                </mxCell>
                <mxCell id="25" value="+ Curriculum_Name: string" style="text;strokeColor=none;fillColor=none;align=left;verticalAlign=top;spacingLeft=4;spacingRight=4;overflow=hidden;rotatable=0;points=[[0,0.5],[1,0.5]];portConstraint=eastwest;whiteSpace=wrap;html=1;fontSize=13;" vertex="1" parent="23">
                    <mxGeometry y="66" width="180" height="26" as="geometry"/>
                </mxCell>
                <mxCell id="26" value="+ Total_Credit: integer" style="text;strokeColor=none;fillColor=none;align=left;verticalAlign=top;spacingLeft=4;spacingRight=4;overflow=hidden;rotatable=0;points=[[0,0.5],[1,0.5]];portConstraint=eastwest;whiteSpace=wrap;html=1;fontSize=13;" vertex="1" parent="23">
                    <mxGeometry y="92" width="180" height="28" as="geometry"/>
                </mxCell>
                <mxCell id="27" value="+ Start_Year: int" style="text;strokeColor=none;fillColor=none;align=left;verticalAlign=top;spacingLeft=4;spacingRight=4;overflow=hidden;rotatable=0;points=[[0,0.5],[1,0.5]];portConstraint=eastwest;whiteSpace=wrap;html=1;fontSize=13;" vertex="1" parent="23">
                    <mxGeometry y="120" width="180" height="28" as="geometry"/>
                </mxCell>
                <mxCell id="28" value="+ Major_id: string , FK" style="text;strokeColor=#000000;fillColor=#f8cecc;align=left;verticalAlign=top;spacingLeft=4;spacingRight=4;overflow=hidden;rotatable=0;points=[[0,0.5],[1,0.5]];portConstraint=eastwest;whiteSpace=wrap;html=1;fontSize=13;" vertex="1" parent="23">
                    <mxGeometry y="148" width="180" height="28" as="geometry"/>
                </mxCell>
                <mxCell id="29" value="+ Book_id: integer, FK" style="text;strokeColor=#000000;fillColor=#f8cecc;align=left;verticalAlign=top;spacingLeft=4;spacingRight=4;overflow=hidden;rotatable=0;points=[[0,0.5],[1,0.5]];portConstraint=eastwest;whiteSpace=wrap;html=1;fontSize=13;" vertex="1" parent="23">
                    <mxGeometry y="176" width="180" height="28" as="geometry"/>
                </mxCell>
                <mxCell id="30" value="&lt;div&gt;&lt;b&gt;&lt;font&gt;&amp;lt;&amp;lt; Entity &amp;gt;&amp;gt;&lt;/font&gt;&lt;/b&gt;&lt;/div&gt;&lt;b&gt;Curriculum_Books&lt;/b&gt;" style="swimlane;fontStyle=0;childLayout=stackLayout;horizontal=1;startSize=40;fillColor=none;horizontalStack=0;resizeParent=1;resizeParentMax=0;resizeLast=0;collapsible=1;marginBottom=0;whiteSpace=wrap;html=1;fontSize=13;" vertex="1" parent="1">
                    <mxGeometry x="-1250" y="267" width="180" height="92" as="geometry"/>
                </mxCell>
                <mxCell id="31" value="+ Book_id: integer, PK" style="text;strokeColor=#000000;fillColor=#fff2cc;align=left;verticalAlign=top;spacingLeft=4;spacingRight=4;overflow=hidden;rotatable=0;points=[[0,0.5],[1,0.5]];portConstraint=eastwest;whiteSpace=wrap;html=1;fontSize=13;" vertex="1" parent="30">
                    <mxGeometry y="40" width="180" height="26" as="geometry"/>
                </mxCell>
                <mxCell id="32" value="+ Path: string" style="text;strokeColor=none;fillColor=none;align=left;verticalAlign=top;spacingLeft=4;spacingRight=4;overflow=hidden;rotatable=0;points=[[0,0.5],[1,0.5]];portConstraint=eastwest;whiteSpace=wrap;html=1;fontSize=13;" vertex="1" parent="30">
                    <mxGeometry y="66" width="180" height="26" as="geometry"/>
                </mxCell>
                <mxCell id="33" value="&lt;div&gt;&lt;b&gt;&lt;font&gt;&amp;lt;&amp;lt; Entity &amp;gt;&amp;gt;&lt;/font&gt;&lt;/b&gt;&lt;/div&gt;&lt;b&gt;Semesters&lt;/b&gt;" style="swimlane;fontStyle=0;childLayout=stackLayout;horizontal=1;startSize=40;fillColor=none;horizontalStack=0;resizeParent=1;resizeParentMax=0;resizeLast=0;collapsible=1;marginBottom=0;whiteSpace=wrap;html=1;fontSize=13;" vertex="1" parent="1">
                    <mxGeometry x="50" y="850" width="180" height="120" as="geometry"/>
                </mxCell>
                <mxCell id="34" value="+ Semester_id: int , PK" style="text;strokeColor=#000000;fillColor=#fff2cc;align=left;verticalAlign=top;spacingLeft=4;spacingRight=4;overflow=hidden;rotatable=0;points=[[0,0.5],[1,0.5]];portConstraint=eastwest;whiteSpace=wrap;html=1;fontSize=13;" vertex="1" parent="33">
                    <mxGeometry y="40" width="180" height="26" as="geometry"/>
                </mxCell>
                <mxCell id="35" value="+ Term: int" style="text;strokeColor=none;fillColor=none;align=left;verticalAlign=top;spacingLeft=4;spacingRight=4;overflow=hidden;rotatable=0;points=[[0,0.5],[1,0.5]];portConstraint=eastwest;whiteSpace=wrap;html=1;fontSize=13;" vertex="1" parent="33">
                    <mxGeometry y="66" width="180" height="26" as="geometry"/>
                </mxCell>
                <mxCell id="36" value="+ Academic_Year: int" style="text;strokeColor=none;fillColor=none;align=left;verticalAlign=top;spacingLeft=4;spacingRight=4;overflow=hidden;rotatable=0;points=[[0,0.5],[1,0.5]];portConstraint=eastwest;whiteSpace=wrap;html=1;fontSize=13;" vertex="1" parent="33">
                    <mxGeometry y="92" width="180" height="28" as="geometry"/>
                </mxCell>
                <mxCell id="37" value="&lt;div&gt;&lt;b&gt;&lt;font&gt;&amp;lt;&amp;lt; Entity &amp;gt;&amp;gt;&lt;/font&gt;&lt;/b&gt;&lt;/div&gt;&lt;b&gt;Activity&lt;/b&gt;" style="swimlane;fontStyle=0;childLayout=stackLayout;horizontal=1;startSize=40;fillColor=none;horizontalStack=0;resizeParent=1;resizeParentMax=0;resizeLast=0;collapsible=1;marginBottom=0;whiteSpace=wrap;html=1;fontSize=13;" vertex="1" parent="1">
                    <mxGeometry x="-1250" y="452" width="180" height="148" as="geometry"/>
                </mxCell>
                <mxCell id="38" value="+ Activity_id: int , PK" style="text;strokeColor=#000000;fillColor=#fff2cc;align=left;verticalAlign=top;spacingLeft=4;spacingRight=4;overflow=hidden;rotatable=0;points=[[0,0.5],[1,0.5]];portConstraint=eastwest;whiteSpace=wrap;html=1;fontSize=13;" vertex="1" parent="37">
                    <mxGeometry y="40" width="180" height="26" as="geometry"/>
                </mxCell>
                <mxCell id="39" value="+ Student_id: string , FK" style="text;strokeColor=#000000;fillColor=#f8cecc;align=left;verticalAlign=top;spacingLeft=4;spacingRight=4;overflow=hidden;rotatable=0;points=[[0,0.5],[1,0.5]];portConstraint=eastwest;whiteSpace=wrap;html=1;fontSize=13;" vertex="1" parent="37">
                    <mxGeometry y="66" width="180" height="26" as="geometry"/>
                </mxCell>
                <mxCell id="40" value="+ Activity_Name: string" style="text;strokeColor=none;fillColor=none;align=left;verticalAlign=top;spacingLeft=4;spacingRight=4;overflow=hidden;rotatable=0;points=[[0,0.5],[1,0.5]];portConstraint=eastwest;whiteSpace=wrap;html=1;fontSize=13;" vertex="1" parent="37">
                    <mxGeometry y="92" width="180" height="28" as="geometry"/>
                </mxCell>
                <mxCell id="41" value="+ Activity_Date: datetime" style="text;strokeColor=none;fillColor=none;align=left;verticalAlign=top;spacingLeft=4;spacingRight=4;overflow=hidden;rotatable=0;points=[[0,0.5],[1,0.5]];portConstraint=eastwest;whiteSpace=wrap;html=1;fontSize=13;" vertex="1" parent="37">
                    <mxGeometry y="120" width="180" height="28" as="geometry"/>
                </mxCell>
                <mxCell id="42" value="&lt;div&gt;&lt;b&gt;&lt;font&gt;&amp;lt;&amp;lt; Entity &amp;gt;&amp;gt;&lt;/font&gt;&lt;/b&gt;&lt;/div&gt;&lt;b&gt;Teachers&lt;/b&gt;" style="swimlane;fontStyle=0;childLayout=stackLayout;horizontal=1;startSize=40;fillColor=none;horizontalStack=0;resizeParent=1;resizeParentMax=0;resizeLast=0;collapsible=1;marginBottom=0;whiteSpace=wrap;html=1;fontSize=13;" vertex="1" parent="1">
                    <mxGeometry x="1030" y="413" width="180" height="312" as="geometry"/>
                </mxCell>
                <mxCell id="43" value="+ Teacher_id: string , PK" style="text;strokeColor=#000000;fillColor=#fff2cc;align=left;verticalAlign=top;spacingLeft=4;spacingRight=4;overflow=hidden;rotatable=0;points=[[0,0.5],[1,0.5]];portConstraint=eastwest;whiteSpace=wrap;html=1;fontSize=13;" vertex="1" parent="42">
                    <mxGeometry y="40" width="180" height="26" as="geometry"/>
                </mxCell>
                <mxCell id="44" value="+ Citizen_id: string" style="text;strokeColor=none;fillColor=none;align=left;verticalAlign=top;spacingLeft=4;spacingRight=4;overflow=hidden;rotatable=0;points=[[0,0.5],[1,0.5]];portConstraint=eastwest;whiteSpace=wrap;html=1;fontSize=13;" vertex="1" parent="42">
                    <mxGeometry y="66" width="180" height="26" as="geometry"/>
                </mxCell>
                <mxCell id="45" value="+ Teacher_Name: string" style="text;strokeColor=none;fillColor=none;align=left;verticalAlign=top;spacingLeft=4;spacingRight=4;overflow=hidden;rotatable=0;points=[[0,0.5],[1,0.5]];portConstraint=eastwest;whiteSpace=wrap;html=1;fontSize=13;" vertex="1" parent="42">
                    <mxGeometry y="92" width="180" height="28" as="geometry"/>
                </mxCell>
                <mxCell id="46" value="+ Email: string" style="text;strokeColor=none;fillColor=none;align=left;verticalAlign=top;spacingLeft=4;spacingRight=4;overflow=hidden;rotatable=0;points=[[0,0.5],[1,0.5]];portConstraint=eastwest;whiteSpace=wrap;html=1;fontSize=13;" vertex="1" parent="42">
                    <mxGeometry y="120" width="180" height="28" as="geometry"/>
                </mxCell>
                <mxCell id="47" value="+ Phone: string" style="text;strokeColor=none;fillColor=none;align=left;verticalAlign=top;spacingLeft=4;spacingRight=4;overflow=hidden;rotatable=0;points=[[0,0.5],[1,0.5]];portConstraint=eastwest;whiteSpace=wrap;html=1;fontSize=13;" vertex="1" parent="42">
                    <mxGeometry y="148" width="180" height="28" as="geometry"/>
                </mxCell>
                <mxCell id="48" value="+ Position: string" style="text;strokeColor=none;fillColor=none;align=left;verticalAlign=top;spacingLeft=4;spacingRight=4;overflow=hidden;rotatable=0;points=[[0,0.5],[1,0.5]];portConstraint=eastwest;whiteSpace=wrap;html=1;fontSize=13;" vertex="1" parent="42">
                    <mxGeometry y="176" width="180" height="28" as="geometry"/>
                </mxCell>
                <mxCell id="49" value="+ Gender_id: integer , FK" style="text;strokeColor=#000000;fillColor=#f8cecc;align=left;verticalAlign=top;spacingLeft=4;spacingRight=4;overflow=hidden;rotatable=0;points=[[0,0.5],[1,0.5]];portConstraint=eastwest;whiteSpace=wrap;html=1;fontSize=13;" vertex="1" parent="42">
                    <mxGeometry y="204" width="180" height="26" as="geometry"/>
                </mxCell>
                <mxCell id="50" value="+ Faculty_id: string , FK" style="text;strokeColor=#000000;fillColor=#f8cecc;align=left;verticalAlign=top;spacingLeft=4;spacingRight=4;overflow=hidden;rotatable=0;points=[[0,0.5],[1,0.5]];portConstraint=eastwest;whiteSpace=wrap;html=1;fontSize=13;" vertex="1" parent="42">
                    <mxGeometry y="230" width="180" height="26" as="geometry"/>
                </mxCell>
                <mxCell id="51" value="+ Major_id: string , FK" style="text;strokeColor=#000000;fillColor=#f8cecc;align=left;verticalAlign=top;spacingLeft=4;spacingRight=4;overflow=hidden;rotatable=0;points=[[0,0.5],[1,0.5]];portConstraint=eastwest;whiteSpace=wrap;html=1;fontSize=13;" vertex="1" parent="42">
                    <mxGeometry y="256" width="180" height="28" as="geometry"/>
                </mxCell>
                <mxCell id="52" value="+ Profile_id: intger , FK" style="text;strokeColor=#000000;fillColor=#f8cecc;align=left;verticalAlign=top;spacingLeft=4;spacingRight=4;overflow=hidden;rotatable=0;points=[[0,0.5],[1,0.5]];portConstraint=eastwest;whiteSpace=wrap;html=1;fontSize=13;" vertex="1" parent="42">
                    <mxGeometry y="284" width="180" height="28" as="geometry"/>
                </mxCell>
                <mxCell id="53" value="&lt;div&gt;&lt;b&gt;&lt;font&gt;&amp;lt;&amp;lt; Entity &amp;gt;&amp;gt;&lt;/font&gt;&lt;/b&gt;&lt;/div&gt;&lt;b&gt;Profiles&lt;/b&gt;" style="swimlane;fontStyle=0;childLayout=stackLayout;horizontal=1;startSize=40;fillColor=none;horizontalStack=0;resizeParent=1;resizeParentMax=0;resizeLast=0;collapsible=1;marginBottom=0;whiteSpace=wrap;html=1;fontSize=13;" vertex="1" parent="1">
                    <mxGeometry x="-1250" y="671" width="180" height="92" as="geometry"/>
                </mxCell>
                <mxCell id="54" value="+ Profile_id: integer , PK" style="text;strokeColor=#000000;fillColor=#fff2cc;align=left;verticalAlign=top;spacingLeft=4;spacingRight=4;overflow=hidden;rotatable=0;points=[[0,0.5],[1,0.5]];portConstraint=eastwest;whiteSpace=wrap;html=1;fontSize=13;" vertex="1" parent="53">
                    <mxGeometry y="40" width="180" height="26" as="geometry"/>
                </mxCell>
                <mxCell id="55" value="+ Path: string" style="text;strokeColor=none;fillColor=none;align=left;verticalAlign=top;spacingLeft=4;spacingRight=4;overflow=hidden;rotatable=0;points=[[0,0.5],[1,0.5]];portConstraint=eastwest;whiteSpace=wrap;html=1;fontSize=13;" vertex="1" parent="53">
                    <mxGeometry y="66" width="180" height="26" as="geometry"/>
                </mxCell>
                <mxCell id="56" value="&lt;div&gt;&lt;b&gt;&lt;font&gt;&amp;lt;&amp;lt; Entity &amp;gt;&amp;gt;&lt;/font&gt;&lt;/b&gt;&lt;/div&gt;&lt;b&gt;Genders&lt;/b&gt;" style="swimlane;fontStyle=0;childLayout=stackLayout;horizontal=1;startSize=40;fillColor=none;horizontalStack=0;resizeParent=1;resizeParentMax=0;resizeLast=0;collapsible=1;marginBottom=0;whiteSpace=wrap;html=1;fontSize=13;" vertex="1" parent="1">
                    <mxGeometry x="-1250" y="821" width="180" height="92" as="geometry"/>
                </mxCell>
                <mxCell id="57" value="+ Gender_id: integer , PK" style="text;strokeColor=#000000;fillColor=#fff2cc;align=left;verticalAlign=top;spacingLeft=4;spacingRight=4;overflow=hidden;rotatable=0;points=[[0,0.5],[1,0.5]];portConstraint=eastwest;whiteSpace=wrap;html=1;fontSize=13;" vertex="1" parent="56">
                    <mxGeometry y="40" width="180" height="26" as="geometry"/>
                </mxCell>
                <mxCell id="58" value="+ Gender: string" style="text;strokeColor=none;fillColor=none;align=left;verticalAlign=top;spacingLeft=4;spacingRight=4;overflow=hidden;rotatable=0;points=[[0,0.5],[1,0.5]];portConstraint=eastwest;whiteSpace=wrap;html=1;fontSize=13;" vertex="1" parent="56">
                    <mxGeometry y="66" width="180" height="26" as="geometry"/>
                </mxCell>
                <mxCell id="59" value="&lt;div&gt;&lt;b&gt;&lt;font&gt;&amp;lt;&amp;lt; Entity &amp;gt;&amp;gt;&lt;/font&gt;&lt;/b&gt;&lt;/div&gt;&lt;b&gt;Advisors&lt;/b&gt;" style="swimlane;fontStyle=0;childLayout=stackLayout;horizontal=1;startSize=40;fillColor=none;horizontalStack=0;resizeParent=1;resizeParentMax=0;resizeLast=0;collapsible=1;marginBottom=0;whiteSpace=wrap;html=1;fontSize=13;" vertex="1" parent="1">
                    <mxGeometry x="1030" y="100" width="180" height="122" as="geometry"/>
                </mxCell>
                <mxCell id="60" value="+ Advisor_id: int , PK" style="text;strokeColor=#000000;fillColor=#fff2cc;align=left;verticalAlign=top;spacingLeft=4;spacingRight=4;overflow=hidden;rotatable=0;points=[[0,0.5],[1,0.5]];portConstraint=eastwest;whiteSpace=wrap;html=1;fontSize=13;" vertex="1" parent="59">
                    <mxGeometry y="40" width="180" height="26" as="geometry"/>
                </mxCell>
                <mxCell id="61" value="+ Teacher_id: string , FK" style="text;strokeColor=#000000;fillColor=#f8cecc;align=left;verticalAlign=top;spacingLeft=4;spacingRight=4;overflow=hidden;rotatable=0;points=[[0,0.5],[1,0.5]];portConstraint=eastwest;whiteSpace=wrap;html=1;fontSize=13;" vertex="1" parent="59">
                    <mxGeometry y="66" width="180" height="28" as="geometry"/>
                </mxCell>
                <mxCell id="62" value="+ Student_id: string , FK" style="text;strokeColor=#000000;fillColor=#f8cecc;align=left;verticalAlign=top;spacingLeft=4;spacingRight=4;overflow=hidden;rotatable=0;points=[[0,0.5],[1,0.5]];portConstraint=eastwest;whiteSpace=wrap;html=1;fontSize=13;" vertex="1" parent="59">
                    <mxGeometry y="94" width="180" height="28" as="geometry"/>
                </mxCell>
                <mxCell id="63" value="&lt;div&gt;&lt;b&gt;&lt;font&gt;&amp;lt;&amp;lt; Entity &amp;gt;&amp;gt;&lt;/font&gt;&lt;/b&gt;&lt;/div&gt;&lt;b&gt;Subject&lt;/b&gt;" style="swimlane;fontStyle=0;childLayout=stackLayout;horizontal=1;startSize=40;fillColor=none;horizontalStack=0;resizeParent=1;resizeParentMax=0;resizeLast=0;collapsible=1;marginBottom=0;whiteSpace=wrap;html=1;fontSize=13;" vertex="1" parent="1">
                    <mxGeometry x="330" y="530" width="180" height="174" as="geometry"/>
                </mxCell>
                <mxCell id="64" value="+ Subject_id: string , PK" style="text;strokeColor=#000000;fillColor=#fff2cc;align=left;verticalAlign=top;spacingLeft=4;spacingRight=4;overflow=hidden;rotatable=0;points=[[0,0.5],[1,0.5]];portConstraint=eastwest;whiteSpace=wrap;html=1;fontSize=13;" vertex="1" parent="63">
                    <mxGeometry y="40" width="180" height="26" as="geometry"/>
                </mxCell>
                <mxCell id="65" value="+ Subject_Name: string" style="text;strokeColor=none;fillColor=none;align=left;verticalAlign=top;spacingLeft=4;spacingRight=4;overflow=hidden;rotatable=0;points=[[0,0.5],[1,0.5]];portConstraint=eastwest;whiteSpace=wrap;html=1;fontSize=13;" vertex="1" parent="63">
                    <mxGeometry y="66" width="180" height="26" as="geometry"/>
                </mxCell>
                <mxCell id="66" value="+ Credit: integer" style="text;strokeColor=none;fillColor=none;align=left;verticalAlign=top;spacingLeft=4;spacingRight=4;overflow=hidden;rotatable=0;points=[[0,0.5],[1,0.5]];portConstraint=eastwest;whiteSpace=wrap;html=1;fontSize=13;" vertex="1" parent="63">
                    <mxGeometry y="92" width="180" height="28" as="geometry"/>
                </mxCell>
                <mxCell id="67" value="+ Major_id: string , Fk" style="text;strokeColor=#000000;fillColor=#f8cecc;align=left;verticalAlign=top;spacingLeft=4;spacingRight=4;overflow=hidden;rotatable=0;points=[[0,0.5],[1,0.5]];portConstraint=eastwest;whiteSpace=wrap;html=1;fontSize=13;" vertex="1" parent="63">
                    <mxGeometry y="120" width="180" height="28" as="geometry"/>
                </mxCell>
                <mxCell id="68" value="+ Faculty_id: string , FK" style="text;strokeColor=#000000;fillColor=#f8cecc;align=left;verticalAlign=top;spacingLeft=4;spacingRight=4;overflow=hidden;rotatable=0;points=[[0,0.5],[1,0.5]];portConstraint=eastwest;whiteSpace=wrap;html=1;fontSize=13;" vertex="1" parent="63">
                    <mxGeometry y="148" width="180" height="26" as="geometry"/>
                </mxCell>
                <mxCell id="69" value="&lt;div&gt;&lt;b&gt;&lt;font&gt;&amp;lt;&amp;lt; Entity &amp;gt;&amp;gt;&lt;/font&gt;&lt;/b&gt;&lt;/div&gt;&lt;b&gt;Teacher_Subject&lt;/b&gt;" style="swimlane;fontStyle=0;childLayout=stackLayout;horizontal=1;startSize=40;fillColor=none;horizontalStack=0;resizeParent=1;resizeParentMax=0;resizeLast=0;collapsible=1;marginBottom=0;whiteSpace=wrap;html=1;fontSize=13;" vertex="1" parent="1">
                    <mxGeometry x="680" y="792" width="180" height="122" as="geometry"/>
                </mxCell>
                <mxCell id="70" value="+ ID: integer ,&amp;nbsp; PK" style="text;strokeColor=#000000;fillColor=#fff2cc;align=left;verticalAlign=top;spacingLeft=4;spacingRight=4;overflow=hidden;rotatable=0;points=[[0,0.5],[1,0.5]];portConstraint=eastwest;whiteSpace=wrap;html=1;fontSize=13;" vertex="1" parent="69">
                    <mxGeometry y="40" width="180" height="26" as="geometry"/>
                </mxCell>
                <mxCell id="71" value="+ Teacher_id: string , FK" style="text;strokeColor=#000000;fillColor=#f8cecc;align=left;verticalAlign=top;spacingLeft=4;spacingRight=4;overflow=hidden;rotatable=0;points=[[0,0.5],[1,0.5]];portConstraint=eastwest;whiteSpace=wrap;html=1;fontSize=13;" vertex="1" parent="69">
                    <mxGeometry y="66" width="180" height="28" as="geometry"/>
                </mxCell>
                <mxCell id="72" value="+ Subject_id: string , FK" style="text;strokeColor=#000000;fillColor=#f8cecc;align=left;verticalAlign=top;spacingLeft=4;spacingRight=4;overflow=hidden;rotatable=0;points=[[0,0.5],[1,0.5]];portConstraint=eastwest;whiteSpace=wrap;html=1;fontSize=13;" vertex="1" parent="69">
                    <mxGeometry y="94" width="180" height="28" as="geometry"/>
                </mxCell>
                <mxCell id="73" value="&lt;div&gt;&lt;b&gt;&lt;font&gt;&amp;lt;&amp;lt; Entity &amp;gt;&amp;gt;&lt;/font&gt;&lt;/b&gt;&lt;/div&gt;&lt;b&gt;Curriculum_Subject&lt;/b&gt;" style="swimlane;fontStyle=0;childLayout=stackLayout;horizontal=1;startSize=40;fillColor=none;horizontalStack=0;resizeParent=1;resizeParentMax=0;resizeLast=0;collapsible=1;marginBottom=0;whiteSpace=wrap;html=1;fontSize=13;" vertex="1" parent="1">
                    <mxGeometry x="330" y="302" width="180" height="148" as="geometry"/>
                </mxCell>
                <mxCell id="74" value="&lt;div&gt;+ ID: integer , PK&lt;/div&gt;" style="text;strokeColor=#000000;fillColor=#fff2cc;align=left;verticalAlign=top;spacingLeft=4;spacingRight=4;overflow=hidden;rotatable=0;points=[[0,0.5],[1,0.5]];portConstraint=eastwest;whiteSpace=wrap;html=1;fontSize=13;" vertex="1" parent="73">
                    <mxGeometry y="40" width="180" height="26" as="geometry"/>
                </mxCell>
                <mxCell id="75" value="+ Curriculum_id: string , FK" style="text;strokeColor=#000000;fillColor=#f8cecc;align=left;verticalAlign=top;spacingLeft=4;spacingRight=4;overflow=hidden;rotatable=0;points=[[0,0.5],[1,0.5]];portConstraint=eastwest;whiteSpace=wrap;html=1;fontSize=13;" vertex="1" parent="73">
                    <mxGeometry y="66" width="180" height="26" as="geometry"/>
                </mxCell>
                <mxCell id="76" value="+ Subject_id: string , FK" style="text;strokeColor=#000000;fillColor=#f8cecc;align=left;verticalAlign=top;spacingLeft=4;spacingRight=4;overflow=hidden;rotatable=0;points=[[0,0.5],[1,0.5]];portConstraint=eastwest;whiteSpace=wrap;html=1;fontSize=13;" vertex="1" parent="73">
                    <mxGeometry y="92" width="180" height="28" as="geometry"/>
                </mxCell>
                <mxCell id="77" value="+ Type: string" style="text;strokeColor=none;fillColor=none;align=left;verticalAlign=top;spacingLeft=4;spacingRight=4;overflow=hidden;rotatable=0;points=[[0,0.5],[1,0.5]];portConstraint=eastwest;whiteSpace=wrap;html=1;fontSize=13;" vertex="1" parent="73">
                    <mxGeometry y="120" width="180" height="28" as="geometry"/>
                </mxCell>
                <mxCell id="78" value="" style="endArrow=none;html=1;rounded=0;entryX=1.01;entryY=0.964;entryDx=0;entryDy=0;entryPerimeter=0;exitX=-0.02;exitY=0.926;exitDx=0;exitDy=0;exitPerimeter=0;" edge="1" parent="1" source="5" target="26">
                    <mxGeometry width="50" height="50" relative="1" as="geometry">
                        <mxPoint x="920" y="400" as="sourcePoint"/>
                        <mxPoint x="970" y="350" as="targetPoint"/>
                    </mxGeometry>
                </mxCell>
                <mxCell id="79" value="1" style="text;html=1;align=center;verticalAlign=middle;resizable=0;points=[];autosize=1;strokeColor=none;fillColor=none;" vertex="1" parent="1">
                    <mxGeometry x="510" y="129" width="30" height="30" as="geometry"/>
                </mxCell>
                <mxCell id="80" value="0..*" style="text;html=1;align=center;verticalAlign=middle;resizable=0;points=[];autosize=1;strokeColor=none;fillColor=none;" vertex="1" parent="1">
                    <mxGeometry x="660" y="129" width="40" height="30" as="geometry"/>
                </mxCell>
                <mxCell id="81" value="" style="endArrow=none;html=1;rounded=0;entryX=1;entryY=0.929;entryDx=0;entryDy=0;entryPerimeter=0;exitX=0;exitY=0.77;exitDx=0;exitDy=0;exitPerimeter=0;" edge="1" parent="1" source="60" target="5">
                    <mxGeometry width="50" height="50" relative="1" as="geometry">
                        <mxPoint x="1000" y="210" as="sourcePoint"/>
                        <mxPoint x="970" y="350" as="targetPoint"/>
                    </mxGeometry>
                </mxCell>
                <mxCell id="82" value="1" style="text;html=1;align=center;verticalAlign=middle;resizable=0;points=[];autosize=1;strokeColor=none;fillColor=none;" vertex="1" parent="1">
                    <mxGeometry x="880" y="129" width="30" height="30" as="geometry"/>
                </mxCell>
                <mxCell id="83" value="0..*" style="text;html=1;align=center;verticalAlign=middle;resizable=0;points=[];autosize=1;strokeColor=none;fillColor=none;" vertex="1" parent="1">
                    <mxGeometry x="980" y="129" width="40" height="30" as="geometry"/>
                </mxCell>
                <mxCell id="84" value="" style="endArrow=none;html=1;rounded=0;exitX=0.5;exitY=0;exitDx=0;exitDy=0;" edge="1" parent="1" source="42">
                    <mxGeometry width="50" height="50" relative="1" as="geometry">
                        <mxPoint x="920" y="400" as="sourcePoint"/>
                        <mxPoint x="1120" y="223" as="targetPoint"/>
                    </mxGeometry>
                </mxCell>
                <mxCell id="85" value="1" style="text;html=1;align=center;verticalAlign=middle;resizable=0;points=[];autosize=1;strokeColor=none;fillColor=none;" vertex="1" parent="1">
                    <mxGeometry x="1120" y="383" width="30" height="30" as="geometry"/>
                </mxCell>
                <mxCell id="86" value="0..*" style="text;html=1;align=center;verticalAlign=middle;resizable=0;points=[];autosize=1;strokeColor=none;fillColor=none;" vertex="1" parent="1">
                    <mxGeometry x="1120" y="225" width="40" height="30" as="geometry"/>
                </mxCell>
                <mxCell id="87" value="" style="endArrow=none;html=1;rounded=0;entryX=0.393;entryY=1.051;entryDx=0;entryDy=0;entryPerimeter=0;" edge="1" parent="1" target="29">
                    <mxGeometry width="50" height="50" relative="1" as="geometry">
                        <mxPoint x="401" y="300" as="sourcePoint"/>
                        <mxPoint x="400" y="250" as="targetPoint"/>
                    </mxGeometry>
                </mxCell>
                <mxCell id="88" value="1" style="text;html=1;align=center;verticalAlign=middle;resizable=0;points=[];autosize=1;strokeColor=none;fillColor=none;" vertex="1" parent="1">
                    <mxGeometry x="400" y="246" width="30" height="30" as="geometry"/>
                </mxCell>
                <mxCell id="89" value="0..*" style="text;html=1;align=center;verticalAlign=middle;resizable=0;points=[];autosize=1;strokeColor=none;fillColor=none;" vertex="1" parent="1">
                    <mxGeometry x="400" y="500" width="40" height="30" as="geometry"/>
                </mxCell>
                <mxCell id="90" value="" style="endArrow=none;html=1;rounded=0;entryX=0.388;entryY=-0.001;entryDx=0;entryDy=0;entryPerimeter=0;" edge="1" parent="1" target="63">
                    <mxGeometry width="50" height="50" relative="1" as="geometry">
                        <mxPoint x="400" y="450" as="sourcePoint"/>
                        <mxPoint x="850" y="440" as="targetPoint"/>
                    </mxGeometry>
                </mxCell>
                <mxCell id="91" value="1" style="text;html=1;align=center;verticalAlign=middle;resizable=0;points=[];autosize=1;strokeColor=none;fillColor=none;" vertex="1" parent="1">
                    <mxGeometry x="400" y="450" width="30" height="30" as="geometry"/>
                </mxCell>
                <mxCell id="92" value="0..*" style="text;html=1;align=center;verticalAlign=middle;resizable=0;points=[];autosize=1;strokeColor=none;fillColor=none;" vertex="1" parent="1">
                    <mxGeometry x="400" y="272" width="40" height="30" as="geometry"/>
                </mxCell>
                <mxCell id="93" value="" style="endArrow=none;html=1;rounded=0;entryX=0.992;entryY=0.642;entryDx=0;entryDy=0;exitX=-0.007;exitY=0.174;exitDx=0;exitDy=0;exitPerimeter=0;entryPerimeter=0;" edge="1" parent="1" source="69" target="66">
                    <mxGeometry width="50" height="50" relative="1" as="geometry">
                        <mxPoint x="800" y="600" as="sourcePoint"/>
                        <mxPoint x="850" y="550" as="targetPoint"/>
                    </mxGeometry>
                </mxCell>
                <mxCell id="94" value="1" style="text;html=1;align=center;verticalAlign=middle;resizable=0;points=[];autosize=1;strokeColor=none;fillColor=none;" vertex="1" parent="1">
                    <mxGeometry x="505" y="662" width="30" height="30" as="geometry"/>
                </mxCell>
                <mxCell id="95" value="0..*" style="text;html=1;align=center;verticalAlign=middle;resizable=0;points=[];autosize=1;strokeColor=none;fillColor=none;" vertex="1" parent="1">
                    <mxGeometry x="640" y="810" width="40" height="30" as="geometry"/>
                </mxCell>
                <mxCell id="96" value="" style="endArrow=none;html=1;rounded=0;exitX=0.007;exitY=0.868;exitDx=0;exitDy=0;exitPerimeter=0;entryX=1.001;entryY=0.174;entryDx=0;entryDy=0;entryPerimeter=0;" edge="1" parent="1" source="49" target="69">
                    <mxGeometry width="50" height="50" relative="1" as="geometry">
                        <mxPoint x="1082" y="660" as="sourcePoint"/>
                        <mxPoint x="870" y="820" as="targetPoint"/>
                    </mxGeometry>
                </mxCell>
                <mxCell id="97" value="1" style="text;html=1;align=center;verticalAlign=middle;resizable=0;points=[];autosize=1;strokeColor=none;fillColor=none;" vertex="1" parent="1">
                    <mxGeometry x="1000" y="660" width="30" height="30" as="geometry"/>
                </mxCell>
                <mxCell id="98" value="0..*" style="text;html=1;align=center;verticalAlign=middle;resizable=0;points=[];autosize=1;strokeColor=none;fillColor=none;" vertex="1" parent="1">
                    <mxGeometry x="860" y="810" width="40" height="30" as="geometry"/>
                </mxCell>
                <mxCell id="99" value="&lt;div&gt;&lt;b&gt;&lt;font&gt;&amp;lt;&amp;lt; Entity &amp;gt;&amp;gt;&lt;/font&gt;&lt;/b&gt;&lt;/div&gt;&lt;b&gt;Subject_Semester&lt;/b&gt;" style="swimlane;fontStyle=0;childLayout=stackLayout;horizontal=1;startSize=40;fillColor=none;horizontalStack=0;resizeParent=1;resizeParentMax=0;resizeLast=0;collapsible=1;marginBottom=0;whiteSpace=wrap;html=1;fontSize=13;" vertex="1" parent="1">
                    <mxGeometry x="325" y="840" width="180" height="122" as="geometry"/>
                </mxCell>
                <mxCell id="100" value="+ ID: integer ,&amp;nbsp; PK" style="text;strokeColor=#000000;fillColor=#fff2cc;align=left;verticalAlign=top;spacingLeft=4;spacingRight=4;overflow=hidden;rotatable=0;points=[[0,0.5],[1,0.5]];portConstraint=eastwest;whiteSpace=wrap;html=1;fontSize=13;" vertex="1" parent="99">
                    <mxGeometry y="40" width="180" height="26" as="geometry"/>
                </mxCell>
                <mxCell id="101" value="+ Subject_id: string , FK" style="text;strokeColor=#000000;fillColor=#f8cecc;align=left;verticalAlign=top;spacingLeft=4;spacingRight=4;overflow=hidden;rotatable=0;points=[[0,0.5],[1,0.5]];portConstraint=eastwest;whiteSpace=wrap;html=1;fontSize=13;" vertex="1" parent="99">
                    <mxGeometry y="66" width="180" height="28" as="geometry"/>
                </mxCell>
                <mxCell id="102" value="+ Semester_id: string , FK" style="text;strokeColor=#000000;fillColor=#f8cecc;align=left;verticalAlign=top;spacingLeft=4;spacingRight=4;overflow=hidden;rotatable=0;points=[[0,0.5],[1,0.5]];portConstraint=eastwest;whiteSpace=wrap;html=1;fontSize=13;" vertex="1" parent="99">
                    <mxGeometry y="94" width="180" height="28" as="geometry"/>
                </mxCell>
                <mxCell id="103" value="" style="endArrow=none;html=1;rounded=0;entryX=0.391;entryY=1.231;entryDx=0;entryDy=0;entryPerimeter=0;" edge="1" parent="1" target="68">
                    <mxGeometry width="50" height="50" relative="1" as="geometry">
                        <mxPoint x="400" y="840" as="sourcePoint"/>
                        <mxPoint x="400.3800000000001" y="730.364" as="targetPoint"/>
                    </mxGeometry>
                </mxCell>
                <mxCell id="104" value="" style="endArrow=none;html=1;rounded=0;entryX=0;entryY=0.5;entryDx=0;entryDy=0;" edge="1" parent="1" source="34" target="99">
                    <mxGeometry width="50" height="50" relative="1" as="geometry">
                        <mxPoint x="560" y="1060" as="sourcePoint"/>
                        <mxPoint x="400" y="960" as="targetPoint"/>
                    </mxGeometry>
                </mxCell>
                <mxCell id="105" value="0..*" style="text;html=1;align=center;verticalAlign=middle;resizable=0;points=[];autosize=1;strokeColor=none;fillColor=none;" vertex="1" parent="1">
                    <mxGeometry x="360" y="810" width="40" height="30" as="geometry"/>
                </mxCell>
                <mxCell id="106" value="0..*" style="text;html=1;align=center;verticalAlign=middle;resizable=0;points=[];autosize=1;strokeColor=none;fillColor=none;" vertex="1" parent="1">
                    <mxGeometry x="285" y="870" width="40" height="30" as="geometry"/>
                </mxCell>
                <mxCell id="107" value="1" style="text;html=1;align=center;verticalAlign=middle;resizable=0;points=[];autosize=1;strokeColor=none;fillColor=none;" vertex="1" parent="1">
                    <mxGeometry x="230" y="870" width="30" height="30" as="geometry"/>
                </mxCell>
                <mxCell id="108" value="1" style="text;html=1;align=center;verticalAlign=middle;resizable=0;points=[];autosize=1;strokeColor=none;fillColor=none;" vertex="1" parent="1">
                    <mxGeometry x="362" y="704" width="30" height="30" as="geometry"/>
                </mxCell>
                <mxCell id="109" value="&lt;div&gt;&lt;b&gt;&lt;font&gt;&amp;lt;&amp;lt; Entity &amp;gt;&amp;gt;&lt;/font&gt;&lt;/b&gt;&lt;/div&gt;&lt;b&gt;Grades&lt;/b&gt;" style="swimlane;fontStyle=0;childLayout=stackLayout;horizontal=1;startSize=40;fillColor=none;horizontalStack=0;resizeParent=1;resizeParentMax=0;resizeLast=0;collapsible=1;marginBottom=0;whiteSpace=wrap;html=1;fontSize=13;" vertex="1" parent="1">
                    <mxGeometry x="700" y="546" width="180" height="202" as="geometry"/>
                </mxCell>
                <mxCell id="110" value="+ Grade_id: integer , PK" style="text;strokeColor=#000000;fillColor=#fff2cc;align=left;verticalAlign=top;spacingLeft=4;spacingRight=4;overflow=hidden;rotatable=0;points=[[0,0.5],[1,0.5]];portConstraint=eastwest;whiteSpace=wrap;html=1;fontSize=13;" vertex="1" parent="109">
                    <mxGeometry y="40" width="180" height="26" as="geometry"/>
                </mxCell>
                <mxCell id="111" value="+ Total_Score: float" style="text;strokeColor=none;fillColor=none;align=left;verticalAlign=top;spacingLeft=4;spacingRight=4;overflow=hidden;rotatable=0;points=[[0,0.5],[1,0.5]];portConstraint=eastwest;whiteSpace=wrap;html=1;fontSize=13;" vertex="1" parent="109">
                    <mxGeometry y="66" width="180" height="26" as="geometry"/>
                </mxCell>
                <mxCell id="112" value="+ Grade: string" style="text;strokeColor=none;fillColor=none;align=left;verticalAlign=top;spacingLeft=4;spacingRight=4;overflow=hidden;rotatable=0;points=[[0,0.5],[1,0.5]];portConstraint=eastwest;whiteSpace=wrap;html=1;fontSize=13;" vertex="1" parent="109">
                    <mxGeometry y="92" width="180" height="28" as="geometry"/>
                </mxCell>
                <mxCell id="113" value="+ Date: datetime" style="text;strokeColor=none;fillColor=none;align=left;verticalAlign=top;spacingLeft=4;spacingRight=4;overflow=hidden;rotatable=0;points=[[0,0.5],[1,0.5]];portConstraint=eastwest;whiteSpace=wrap;html=1;fontSize=13;" vertex="1" parent="109">
                    <mxGeometry y="120" width="180" height="28" as="geometry"/>
                </mxCell>
                <mxCell id="114" value="+ Student_id: string, FK" style="text;strokeColor=#000000;fillColor=#f8cecc;align=left;verticalAlign=top;spacingLeft=4;spacingRight=4;overflow=hidden;rotatable=0;points=[[0,0.5],[1,0.5]];portConstraint=eastwest;whiteSpace=wrap;html=1;fontSize=13;" vertex="1" parent="109">
                    <mxGeometry y="148" width="180" height="28" as="geometry"/>
                </mxCell>
                <mxCell id="115" value="+ Subject_id: string , FK" style="text;strokeColor=#000000;fillColor=#f8cecc;align=left;verticalAlign=top;spacingLeft=4;spacingRight=4;overflow=hidden;rotatable=0;points=[[0,0.5],[1,0.5]];portConstraint=eastwest;whiteSpace=wrap;html=1;fontSize=13;" vertex="1" parent="109">
                    <mxGeometry y="176" width="180" height="26" as="geometry"/>
                </mxCell>
                <mxCell id="116" value="" style="endArrow=none;html=1;rounded=0;entryX=0.553;entryY=0.987;entryDx=0;entryDy=0;entryPerimeter=0;exitX=0.562;exitY=-0.001;exitDx=0;exitDy=0;exitPerimeter=0;" edge="1" parent="1" source="109" target="15">
                    <mxGeometry width="50" height="50" relative="1" as="geometry">
                        <mxPoint x="910" y="630" as="sourcePoint"/>
                        <mxPoint x="800" y="440" as="targetPoint"/>
                    </mxGeometry>
                </mxCell>
                <mxCell id="117" value="" style="endArrow=none;html=1;rounded=0;exitX=0.058;exitY=0.939;exitDx=0;exitDy=0;exitPerimeter=0;" edge="1" parent="1" source="120" target="110">
                    <mxGeometry width="50" height="50" relative="1" as="geometry">
                        <mxPoint x="550" y="621" as="sourcePoint"/>
                        <mxPoint x="645" y="620" as="targetPoint"/>
                    </mxGeometry>
                </mxCell>
                <mxCell id="118" value="0..*" style="text;html=1;align=center;verticalAlign=middle;resizable=0;points=[];autosize=1;strokeColor=none;fillColor=none;" vertex="1" parent="1">
                    <mxGeometry x="660" y="570" width="40" height="30" as="geometry"/>
                </mxCell>
                <mxCell id="119" value="0..*" style="text;html=1;align=center;verticalAlign=middle;resizable=0;points=[];autosize=1;strokeColor=none;fillColor=none;" vertex="1" parent="1">
                    <mxGeometry x="770" y="510" width="40" height="30" as="geometry"/>
                </mxCell>
                <mxCell id="120" value="1" style="text;html=1;align=center;verticalAlign=middle;resizable=0;points=[];autosize=1;strokeColor=none;fillColor=none;" vertex="1" parent="1">
                    <mxGeometry x="510" y="570" width="30" height="30" as="geometry"/>
                </mxCell>
                <mxCell id="121" value="1" style="text;html=1;align=center;verticalAlign=middle;resizable=0;points=[];autosize=1;strokeColor=none;fillColor=none;" vertex="1" parent="1">
                    <mxGeometry x="767" y="441" width="30" height="30" as="geometry"/>
                </mxCell>
                <mxCell id="122" value="&lt;div&gt;&lt;b&gt;&lt;font&gt;&amp;lt;&amp;lt; Entity &amp;gt;&amp;gt;&lt;/font&gt;&lt;/b&gt;&lt;/div&gt;&lt;b&gt;Grade Semester&lt;/b&gt;" style="swimlane;fontStyle=0;childLayout=stackLayout;horizontal=1;startSize=40;fillColor=none;horizontalStack=0;resizeParent=1;resizeParentMax=0;resizeLast=0;collapsible=1;marginBottom=0;whiteSpace=wrap;html=1;fontSize=13;" vertex="1" parent="1">
                    <mxGeometry x="700" y="-230" width="180" height="176" as="geometry"/>
                </mxCell>
                <mxCell id="123" value="+ ID: integer , PK" style="text;strokeColor=#000000;fillColor=#fff2cc;align=left;verticalAlign=top;spacingLeft=4;spacingRight=4;overflow=hidden;rotatable=0;points=[[0,0.5],[1,0.5]];portConstraint=eastwest;whiteSpace=wrap;html=1;fontSize=13;" vertex="1" parent="122">
                    <mxGeometry y="40" width="180" height="26" as="geometry"/>
                </mxCell>
                <mxCell id="124" value="+ Gpa: float" style="text;strokeColor=none;fillColor=none;align=left;verticalAlign=top;spacingLeft=4;spacingRight=4;overflow=hidden;rotatable=0;points=[[0,0.5],[1,0.5]];portConstraint=eastwest;whiteSpace=wrap;html=1;fontSize=13;" vertex="1" parent="122">
                    <mxGeometry y="66" width="180" height="26" as="geometry"/>
                </mxCell>
                <mxCell id="125" value="+ Gpax: float" style="text;strokeColor=none;fillColor=none;align=left;verticalAlign=top;spacingLeft=4;spacingRight=4;overflow=hidden;rotatable=0;points=[[0,0.5],[1,0.5]];portConstraint=eastwest;whiteSpace=wrap;html=1;fontSize=13;" vertex="1" parent="122">
                    <mxGeometry y="92" width="180" height="28" as="geometry"/>
                </mxCell>
                <mxCell id="126" value="+ Semester_id: integer , Fk" style="text;strokeColor=#000000;fillColor=#f8cecc;align=left;verticalAlign=top;spacingLeft=4;spacingRight=4;overflow=hidden;rotatable=0;points=[[0,0.5],[1,0.5]];portConstraint=eastwest;whiteSpace=wrap;html=1;fontSize=13;" vertex="1" parent="122">
                    <mxGeometry y="120" width="180" height="28" as="geometry"/>
                </mxCell>
                <mxCell id="127" value="+ Student_id: string , FK" style="text;strokeColor=#000000;fillColor=#f8cecc;align=left;verticalAlign=top;spacingLeft=4;spacingRight=4;overflow=hidden;rotatable=0;points=[[0,0.5],[1,0.5]];portConstraint=eastwest;whiteSpace=wrap;html=1;fontSize=13;" vertex="1" parent="122">
                    <mxGeometry y="148" width="180" height="28" as="geometry"/>
                </mxCell>
                <mxCell id="128" value="&lt;div&gt;&lt;b&gt;&lt;font&gt;&amp;lt;&amp;lt; Entity &amp;gt;&amp;gt;&lt;/font&gt;&lt;/b&gt;&lt;/div&gt;&lt;b&gt;Semesters&lt;/b&gt;" style="swimlane;fontStyle=0;childLayout=stackLayout;horizontal=1;startSize=40;fillColor=none;horizontalStack=0;resizeParent=1;resizeParentMax=0;resizeLast=0;collapsible=1;marginBottom=0;whiteSpace=wrap;html=1;fontSize=13;" vertex="1" parent="1">
                    <mxGeometry x="700" y="-450" width="180" height="120" as="geometry"/>
                </mxCell>
                <mxCell id="129" value="+ Semester_id: int , PK" style="text;strokeColor=#000000;fillColor=#fff2cc;align=left;verticalAlign=top;spacingLeft=4;spacingRight=4;overflow=hidden;rotatable=0;points=[[0,0.5],[1,0.5]];portConstraint=eastwest;whiteSpace=wrap;html=1;fontSize=13;" vertex="1" parent="128">
                    <mxGeometry y="40" width="180" height="26" as="geometry"/>
                </mxCell>
                <mxCell id="130" value="+ Term: int" style="text;strokeColor=none;fillColor=none;align=left;verticalAlign=top;spacingLeft=4;spacingRight=4;overflow=hidden;rotatable=0;points=[[0,0.5],[1,0.5]];portConstraint=eastwest;whiteSpace=wrap;html=1;fontSize=13;" vertex="1" parent="128">
                    <mxGeometry y="66" width="180" height="26" as="geometry"/>
                </mxCell>
                <mxCell id="131" value="+ Academic_Year: int" style="text;strokeColor=none;fillColor=none;align=left;verticalAlign=top;spacingLeft=4;spacingRight=4;overflow=hidden;rotatable=0;points=[[0,0.5],[1,0.5]];portConstraint=eastwest;whiteSpace=wrap;html=1;fontSize=13;" vertex="1" parent="128">
                    <mxGeometry y="92" width="180" height="28" as="geometry"/>
                </mxCell>
                <mxCell id="132" value="" style="endArrow=none;html=1;rounded=0;entryX=0.556;entryY=1;entryDx=0;entryDy=0;entryPerimeter=0;" edge="1" parent="1" target="131">
                    <mxGeometry width="50" height="50" relative="1" as="geometry">
                        <mxPoint x="801" y="-230" as="sourcePoint"/>
                        <mxPoint x="1000" y="-140" as="targetPoint"/>
                    </mxGeometry>
                </mxCell>
                <mxCell id="133" value="" style="endArrow=none;html=1;rounded=0;entryX=0.555;entryY=0.986;entryDx=0;entryDy=0;entryPerimeter=0;exitX=0.555;exitY=-0.005;exitDx=0;exitDy=0;exitPerimeter=0;" edge="1" parent="1" source="2" target="127">
                    <mxGeometry width="50" height="50" relative="1" as="geometry">
                        <mxPoint x="801" y="40" as="sourcePoint"/>
                        <mxPoint x="800" y="-50" as="targetPoint"/>
                    </mxGeometry>
                </mxCell>
                <mxCell id="134" value="0..*" style="text;html=1;align=center;verticalAlign=middle;resizable=0;points=[];autosize=1;strokeColor=none;fillColor=none;" vertex="1" parent="1">
                    <mxGeometry x="762" y="-54" width="40" height="30" as="geometry"/>
                </mxCell>
                <mxCell id="135" value="0..*" style="text;html=1;align=center;verticalAlign=middle;resizable=0;points=[];autosize=1;strokeColor=none;fillColor=none;" vertex="1" parent="1">
                    <mxGeometry x="762" y="-260" width="40" height="30" as="geometry"/>
                </mxCell>
                <mxCell id="136" value="1" style="text;html=1;align=center;verticalAlign=middle;resizable=0;points=[];autosize=1;strokeColor=none;fillColor=none;" vertex="1" parent="1">
                    <mxGeometry x="763" y="12" width="30" height="30" as="geometry"/>
                </mxCell>
                <mxCell id="137" value="1" style="text;html=1;align=center;verticalAlign=middle;resizable=0;points=[];autosize=1;strokeColor=none;fillColor=none;" vertex="1" parent="1">
                    <mxGeometry x="762" y="-330" width="30" height="30" as="geometry"/>
                </mxCell>
                <mxCell id="138" value="&lt;div&gt;&lt;b&gt;&lt;font&gt;&amp;lt;&amp;lt; Entity &amp;gt;&amp;gt;&lt;/font&gt;&lt;/b&gt;&lt;/div&gt;&lt;b&gt;Scores&lt;/b&gt;" style="swimlane;fontStyle=0;childLayout=stackLayout;horizontal=1;startSize=40;fillColor=none;horizontalStack=0;resizeParent=1;resizeParentMax=0;resizeLast=0;collapsible=1;marginBottom=0;whiteSpace=wrap;html=1;fontSize=13;" vertex="1" parent="1">
                    <mxGeometry x="-80" y="-258" width="180" height="204" as="geometry"/>
                </mxCell>
                <mxCell id="139" value="+ ID: integer , PK" style="text;strokeColor=#000000;fillColor=#fff2cc;align=left;verticalAlign=top;spacingLeft=4;spacingRight=4;overflow=hidden;rotatable=0;points=[[0,0.5],[1,0.5]];portConstraint=eastwest;whiteSpace=wrap;html=1;fontSize=13;" vertex="1" parent="138">
                    <mxGeometry y="40" width="180" height="26" as="geometry"/>
                </mxCell>
                <mxCell id="140" value="+ List: string" style="text;strokeColor=none;fillColor=none;align=left;verticalAlign=top;spacingLeft=4;spacingRight=4;overflow=hidden;rotatable=0;points=[[0,0.5],[1,0.5]];portConstraint=eastwest;whiteSpace=wrap;html=1;fontSize=13;" vertex="1" parent="138">
                    <mxGeometry y="66" width="180" height="26" as="geometry"/>
                </mxCell>
                <mxCell id="141" value="+ Score: float" style="text;strokeColor=none;fillColor=none;align=left;verticalAlign=top;spacingLeft=4;spacingRight=4;overflow=hidden;rotatable=0;points=[[0,0.5],[1,0.5]];portConstraint=eastwest;whiteSpace=wrap;html=1;fontSize=13;" vertex="1" parent="138">
                    <mxGeometry y="92" width="180" height="28" as="geometry"/>
                </mxCell>
                <mxCell id="142" value="+ Score_Total: integer" style="text;strokeColor=none;fillColor=none;align=left;verticalAlign=top;spacingLeft=4;spacingRight=4;overflow=hidden;rotatable=0;points=[[0,0.5],[1,0.5]];portConstraint=eastwest;whiteSpace=wrap;html=1;fontSize=13;" vertex="1" parent="138">
                    <mxGeometry y="120" width="180" height="28" as="geometry"/>
                </mxCell>
                <mxCell id="143" value="+ Student_id: string , FK" style="text;strokeColor=#000000;fillColor=#f8cecc;align=left;verticalAlign=top;spacingLeft=4;spacingRight=4;overflow=hidden;rotatable=0;points=[[0,0.5],[1,0.5]];portConstraint=eastwest;whiteSpace=wrap;html=1;fontSize=13;" vertex="1" parent="138">
                    <mxGeometry y="148" width="180" height="28" as="geometry"/>
                </mxCell>
                <mxCell id="144" value="+ Subject_id: string , FK" style="text;strokeColor=#000000;fillColor=#f8cecc;align=left;verticalAlign=top;spacingLeft=4;spacingRight=4;overflow=hidden;rotatable=0;points=[[0,0.5],[1,0.5]];portConstraint=eastwest;whiteSpace=wrap;html=1;fontSize=13;" vertex="1" parent="138">
                    <mxGeometry y="176" width="180" height="28" as="geometry"/>
                </mxCell>
                <mxCell id="145" value="" style="endArrow=none;html=1;rounded=0;entryX=0.5;entryY=1;entryDx=0;entryDy=0;" edge="1" parent="1" target="138">
                    <mxGeometry width="50" height="50" relative="1" as="geometry">
                        <mxPoint x="330" y="640" as="sourcePoint"/>
                        <mxPoint x="130" y="170" as="targetPoint"/>
                        <Array as="points">
                            <mxPoint x="10" y="640"/>
                        </Array>
                    </mxGeometry>
                </mxCell>
                <mxCell id="146" value="" style="endArrow=none;html=1;rounded=0;entryX=0.002;entryY=-0.006;entryDx=0;entryDy=0;entryPerimeter=0;exitX=1;exitY=0.5;exitDx=0;exitDy=0;" edge="1" parent="1" source="140" target="4">
                    <mxGeometry width="50" height="50" relative="1" as="geometry">
                        <mxPoint x="110" y="-160" as="sourcePoint"/>
                        <mxPoint x="130" y="170" as="targetPoint"/>
                        <Array as="points">
                            <mxPoint x="430" y="-179"/>
                        </Array>
                    </mxGeometry>
                </mxCell>
                <mxCell id="147" value="1" style="text;html=1;align=center;verticalAlign=middle;resizable=0;points=[];autosize=1;strokeColor=none;fillColor=none;" vertex="1" parent="1">
                    <mxGeometry x="670" y="50" width="30" height="30" as="geometry"/>
                </mxCell>
                <mxCell id="148" value="0..*" style="text;html=1;align=center;verticalAlign=middle;resizable=0;points=[];autosize=1;strokeColor=none;fillColor=none;" vertex="1" parent="1">
                    <mxGeometry x="100" y="-210" width="40" height="30" as="geometry"/>
                </mxCell>
                <mxCell id="149" value="0..*" style="text;html=1;align=center;verticalAlign=middle;resizable=0;points=[];autosize=1;strokeColor=none;fillColor=none;" vertex="1" parent="1">
                    <mxGeometry x="10" y="-50" width="40" height="30" as="geometry"/>
                </mxCell>
                <mxCell id="150" value="1" style="text;html=1;align=center;verticalAlign=middle;resizable=0;points=[];autosize=1;strokeColor=none;fillColor=none;" vertex="1" parent="1">
                    <mxGeometry x="300" y="614" width="30" height="30" as="geometry"/>
                </mxCell>
                <mxCell id="151" value="&lt;div&gt;&lt;b&gt;&lt;font&gt;&amp;lt;&amp;lt; Entity &amp;gt;&amp;gt;&lt;/font&gt;&lt;/b&gt;&lt;/div&gt;&lt;b&gt;Sections&lt;/b&gt;" style="swimlane;fontStyle=0;childLayout=stackLayout;horizontal=1;startSize=40;fillColor=none;horizontalStack=0;resizeParent=1;resizeParentMax=0;resizeLast=0;collapsible=1;marginBottom=0;whiteSpace=wrap;html=1;fontSize=13;" vertex="1" parent="1">
                    <mxGeometry x="-330" y="644" width="180" height="148" as="geometry"/>
                </mxCell>
                <mxCell id="152" value="+ Section_id: integer , PK" style="text;strokeColor=#000000;fillColor=#fff2cc;align=left;verticalAlign=top;spacingLeft=4;spacingRight=4;overflow=hidden;rotatable=0;points=[[0,0.5],[1,0.5]];portConstraint=eastwest;whiteSpace=wrap;html=1;fontSize=13;" vertex="1" parent="151">
                    <mxGeometry y="40" width="180" height="26" as="geometry"/>
                </mxCell>
                <mxCell id="153" value="+ Group: integer" style="text;strokeColor=none;fillColor=none;align=left;verticalAlign=top;spacingLeft=4;spacingRight=4;overflow=hidden;rotatable=0;points=[[0,0.5],[1,0.5]];portConstraint=eastwest;whiteSpace=wrap;html=1;fontSize=13;" vertex="1" parent="151">
                    <mxGeometry y="66" width="180" height="26" as="geometry"/>
                </mxCell>
                <mxCell id="154" value="+ Date_Teaching: string" style="text;strokeColor=none;fillColor=none;align=left;verticalAlign=top;spacingLeft=4;spacingRight=4;overflow=hidden;rotatable=0;points=[[0,0.5],[1,0.5]];portConstraint=eastwest;whiteSpace=wrap;html=1;fontSize=13;" vertex="1" parent="151">
                    <mxGeometry y="92" width="180" height="28" as="geometry"/>
                </mxCell>
                <mxCell id="155" value="+ Subject_id: string , FK" style="text;strokeColor=#000000;fillColor=#f8cecc;align=left;verticalAlign=top;spacingLeft=4;spacingRight=4;overflow=hidden;rotatable=0;points=[[0,0.5],[1,0.5]];portConstraint=eastwest;whiteSpace=wrap;html=1;fontSize=13;" vertex="1" parent="151">
                    <mxGeometry y="120" width="180" height="28" as="geometry"/>
                </mxCell>
                <mxCell id="156" value="" style="endArrow=none;html=1;rounded=0;exitX=0.999;exitY=0.271;exitDx=0;exitDy=0;exitPerimeter=0;" edge="1" parent="1" source="152">
                    <mxGeometry width="50" height="50" relative="1" as="geometry">
                        <mxPoint x="-150" y="730" as="sourcePoint"/>
                        <mxPoint x="330" y="690" as="targetPoint"/>
                    </mxGeometry>
                </mxCell>
                <mxCell id="157" value="&lt;div&gt;&lt;b&gt;&lt;font&gt;&amp;lt;&amp;lt; Entity &amp;gt;&amp;gt;&lt;/font&gt;&lt;/b&gt;&lt;/div&gt;&lt;b&gt;Registrations&lt;/b&gt;" style="swimlane;fontStyle=0;childLayout=stackLayout;horizontal=1;startSize=40;fillColor=none;horizontalStack=0;resizeParent=1;resizeParentMax=0;resizeLast=0;collapsible=1;marginBottom=0;whiteSpace=wrap;html=1;fontSize=13;" vertex="1" parent="1">
                    <mxGeometry x="-320" y="306" width="180" height="204" as="geometry"/>
                </mxCell>
                <mxCell id="158" value="+ Registration_id: string , PK" style="text;strokeColor=#000000;fillColor=#fff2cc;align=left;verticalAlign=top;spacingLeft=4;spacingRight=4;overflow=hidden;rotatable=0;points=[[0,0.5],[1,0.5]];portConstraint=eastwest;whiteSpace=wrap;html=1;fontSize=13;" vertex="1" parent="157">
                    <mxGeometry y="40" width="180" height="26" as="geometry"/>
                </mxCell>
                <mxCell id="159" value="+ Date: datetime" style="text;strokeColor=none;fillColor=none;align=left;verticalAlign=top;spacingLeft=4;spacingRight=4;overflow=hidden;rotatable=0;points=[[0,0.5],[1,0.5]];portConstraint=eastwest;whiteSpace=wrap;html=1;fontSize=13;" vertex="1" parent="157">
                    <mxGeometry y="66" width="180" height="26" as="geometry"/>
                </mxCell>
                <mxCell id="160" value="+ Subject_id: string , FK" style="text;strokeColor=#000000;fillColor=#f8cecc;align=left;verticalAlign=top;spacingLeft=4;spacingRight=4;overflow=hidden;rotatable=0;points=[[0,0.5],[1,0.5]];portConstraint=eastwest;whiteSpace=wrap;html=1;fontSize=13;" vertex="1" parent="157">
                    <mxGeometry y="92" width="180" height="28" as="geometry"/>
                </mxCell>
                <mxCell id="161" value="+ Section_id: integer , Fk" style="text;strokeColor=#000000;fillColor=#f8cecc;align=left;verticalAlign=top;spacingLeft=4;spacingRight=4;overflow=hidden;rotatable=0;points=[[0,0.5],[1,0.5]];portConstraint=eastwest;whiteSpace=wrap;html=1;fontSize=13;" vertex="1" parent="157">
                    <mxGeometry y="120" width="180" height="28" as="geometry"/>
                </mxCell>
                <mxCell id="162" value="+ Semester_id: integer , FK" style="text;strokeColor=#000000;fillColor=#f8cecc;align=left;verticalAlign=top;spacingLeft=4;spacingRight=4;overflow=hidden;rotatable=0;points=[[0,0.5],[1,0.5]];portConstraint=eastwest;whiteSpace=wrap;html=1;fontSize=13;" vertex="1" parent="157">
                    <mxGeometry y="148" width="180" height="28" as="geometry"/>
                </mxCell>
                <mxCell id="163" value="+ Student_id: string , FK" style="text;strokeColor=#000000;fillColor=#f8cecc;align=left;verticalAlign=top;spacingLeft=4;spacingRight=4;overflow=hidden;rotatable=0;points=[[0,0.5],[1,0.5]];portConstraint=eastwest;whiteSpace=wrap;html=1;fontSize=13;" vertex="1" parent="157">
                    <mxGeometry y="176" width="180" height="28" as="geometry"/>
                </mxCell>
                <mxCell id="164" value="" style="endArrow=none;html=1;rounded=0;exitX=0.5;exitY=0;exitDx=0;exitDy=0;" edge="1" parent="1" source="151">
                    <mxGeometry width="50" height="50" relative="1" as="geometry">
                        <mxPoint x="140" y="740" as="sourcePoint"/>
                        <mxPoint x="-240" y="510" as="targetPoint"/>
                    </mxGeometry>
                </mxCell>
                <mxCell id="165" value="" style="endArrow=none;html=1;rounded=0;entryX=1;entryY=0.75;entryDx=0;entryDy=0;exitX=0.005;exitY=0.162;exitDx=0;exitDy=0;exitPerimeter=0;" edge="1" parent="1" source="35" target="157">
                    <mxGeometry width="50" height="50" relative="1" as="geometry">
                        <mxPoint x="140" y="740" as="sourcePoint"/>
                        <mxPoint x="190" y="690" as="targetPoint"/>
                        <Array as="points">
                            <mxPoint x="-40" y="920"/>
                            <mxPoint x="-40" y="840"/>
                            <mxPoint x="-40" y="740"/>
                            <mxPoint x="-40" y="459"/>
                        </Array>
                    </mxGeometry>
                </mxCell>
                <mxCell id="166" value="1" style="text;html=1;align=center;verticalAlign=middle;resizable=0;points=[];autosize=1;strokeColor=none;fillColor=none;" vertex="1" parent="1">
                    <mxGeometry x="-240" y="614" width="30" height="30" as="geometry"/>
                </mxCell>
                <mxCell id="167" value="1" style="text;html=1;align=center;verticalAlign=middle;resizable=0;points=[];autosize=1;strokeColor=none;fillColor=none;" vertex="1" parent="1">
                    <mxGeometry x="20" y="886" width="30" height="30" as="geometry"/>
                </mxCell>
                <mxCell id="168" value="0..*" style="text;html=1;align=center;verticalAlign=middle;resizable=0;points=[];autosize=1;strokeColor=none;fillColor=none;" vertex="1" parent="1">
                    <mxGeometry x="-140" y="430" width="40" height="30" as="geometry"/>
                </mxCell>
                <mxCell id="169" value="1" style="text;html=1;align=center;verticalAlign=middle;resizable=0;points=[];autosize=1;strokeColor=none;fillColor=none;" vertex="1" parent="1">
                    <mxGeometry x="300" y="660" width="30" height="30" as="geometry"/>
                </mxCell>
                <mxCell id="170" value="0..*" style="text;html=1;align=center;verticalAlign=middle;resizable=0;points=[];autosize=1;strokeColor=none;fillColor=none;" vertex="1" parent="1">
                    <mxGeometry x="-150" y="660" width="40" height="30" as="geometry"/>
                </mxCell>
                <mxCell id="171" value="" style="endArrow=none;html=1;rounded=0;entryX=1;entryY=0.5;entryDx=0;entryDy=0;exitX=0;exitY=0.5;exitDx=0;exitDy=0;" edge="1" parent="1" source="64" target="159">
                    <mxGeometry width="50" height="50" relative="1" as="geometry">
                        <mxPoint x="200" y="480" as="sourcePoint"/>
                        <mxPoint x="250" y="430" as="targetPoint"/>
                        <Array as="points">
                            <mxPoint x="100" y="583"/>
                            <mxPoint x="100" y="385"/>
                        </Array>
                    </mxGeometry>
                </mxCell>
                <mxCell id="172" value="1" style="text;html=1;align=center;verticalAlign=middle;resizable=0;points=[];autosize=1;strokeColor=none;fillColor=none;" vertex="1" parent="1">
                    <mxGeometry x="300" y="554" width="30" height="30" as="geometry"/>
                </mxCell>
                <mxCell id="173" value="0..*" style="text;html=1;align=center;verticalAlign=middle;resizable=0;points=[];autosize=1;strokeColor=none;fillColor=none;" vertex="1" parent="1">
                    <mxGeometry x="-140" y="353" width="40" height="30" as="geometry"/>
                </mxCell>
                <mxCell id="174" value="" style="endArrow=none;html=1;rounded=0;exitX=1.022;exitY=0.126;exitDx=0;exitDy=0;exitPerimeter=0;entryX=0;entryY=0.643;entryDx=0;entryDy=0;entryPerimeter=0;" edge="1" parent="1" source="157" target="14">
                    <mxGeometry width="50" height="50" relative="1" as="geometry">
                        <mxPoint x="50" y="320" as="sourcePoint"/>
                        <mxPoint x="100" y="270" as="targetPoint"/>
                        <Array as="points">
                            <mxPoint x="170" y="332"/>
                            <mxPoint x="170" y="480"/>
                            <mxPoint x="440" y="480"/>
                            <mxPoint x="570" y="480"/>
                            <mxPoint x="570" y="400"/>
                        </Array>
                    </mxGeometry>
                </mxCell>
                <mxCell id="175" value="1" style="text;html=1;align=center;verticalAlign=middle;resizable=0;points=[];autosize=1;strokeColor=none;fillColor=none;" vertex="1" parent="1">
                    <mxGeometry x="670" y="370" width="30" height="30" as="geometry"/>
                </mxCell>
                <mxCell id="176" value="0..*" style="text;html=1;align=center;verticalAlign=middle;resizable=0;points=[];autosize=1;strokeColor=none;fillColor=none;" vertex="1" parent="1">
                    <mxGeometry x="-140" y="302" width="40" height="30" as="geometry"/>
                </mxCell>
                <mxCell id="177" value="0..*" style="text;html=1;align=center;verticalAlign=middle;resizable=0;points=[];autosize=1;strokeColor=none;fillColor=none;" vertex="1" parent="1">
                    <mxGeometry x="-240" y="510" width="40" height="30" as="geometry"/>
                </mxCell>
                <mxCell id="178" value="&lt;div&gt;&lt;b&gt;&lt;font&gt;&amp;lt;&amp;lt; Entity &amp;gt;&amp;gt;&lt;/font&gt;&lt;/b&gt;&lt;/div&gt;&lt;b&gt;Bill&lt;/b&gt;" style="swimlane;fontStyle=0;childLayout=stackLayout;horizontal=1;startSize=40;fillColor=none;horizontalStack=0;resizeParent=1;resizeParentMax=0;resizeLast=0;collapsible=1;marginBottom=0;whiteSpace=wrap;html=1;fontSize=13;" vertex="1" parent="1">
                    <mxGeometry x="-750" y="302" width="180" height="146" as="geometry"/>
                </mxCell>
                <mxCell id="179" value="+ Bill_id: string , PK" style="text;strokeColor=#000000;fillColor=#fff2cc;align=left;verticalAlign=top;spacingLeft=4;spacingRight=4;overflow=hidden;rotatable=0;points=[[0,0.5],[1,0.5]];portConstraint=eastwest;whiteSpace=wrap;html=1;fontSize=13;" vertex="1" parent="178">
                    <mxGeometry y="40" width="180" height="26" as="geometry"/>
                </mxCell>
                <mxCell id="180" value="+ Date: datetime" style="text;strokeColor=none;fillColor=none;align=left;verticalAlign=top;spacingLeft=4;spacingRight=4;overflow=hidden;rotatable=0;points=[[0,0.5],[1,0.5]];portConstraint=eastwest;whiteSpace=wrap;html=1;fontSize=13;" vertex="1" parent="178">
                    <mxGeometry y="66" width="180" height="26" as="geometry"/>
                </mxCell>
                <mxCell id="181" value="+ Total_Price: float" style="text;strokeColor=none;fillColor=none;align=left;verticalAlign=top;spacingLeft=4;spacingRight=4;overflow=hidden;rotatable=0;points=[[0,0.5],[1,0.5]];portConstraint=eastwest;whiteSpace=wrap;html=1;fontSize=13;" vertex="1" parent="178">
                    <mxGeometry y="92" width="180" height="26" as="geometry"/>
                </mxCell>
                <mxCell id="182" value="+ Registration_id: string , FK" style="text;strokeColor=#000000;fillColor=#f8cecc;align=left;verticalAlign=top;spacingLeft=4;spacingRight=4;overflow=hidden;rotatable=0;points=[[0,0.5],[1,0.5]];portConstraint=eastwest;whiteSpace=wrap;html=1;fontSize=13;" vertex="1" parent="178">
                    <mxGeometry y="118" width="180" height="28" as="geometry"/>
                </mxCell>
                <mxCell id="183" value="" style="endArrow=none;html=1;rounded=0;exitX=1;exitY=0.5;exitDx=0;exitDy=0;entryX=-0.014;entryY=0.292;entryDx=0;entryDy=0;entryPerimeter=0;" edge="1" parent="1" source="180" target="159">
                    <mxGeometry width="50" height="50" relative="1" as="geometry">
                        <mxPoint x="-390" y="410" as="sourcePoint"/>
                        <mxPoint x="-340" y="360" as="targetPoint"/>
                    </mxGeometry>
                </mxCell>
                <mxCell id="184" value="0..*" style="text;html=1;align=center;verticalAlign=middle;resizable=0;points=[];autosize=1;strokeColor=none;fillColor=none;" vertex="1" parent="1">
                    <mxGeometry x="-570" y="350" width="40" height="30" as="geometry"/>
                </mxCell>
                <mxCell id="185" value="1" style="text;html=1;align=center;verticalAlign=middle;resizable=0;points=[];autosize=1;strokeColor=none;fillColor=none;" vertex="1" parent="1">
                    <mxGeometry x="-350" y="350" width="30" height="30" as="geometry"/>
                </mxCell>
                <mxCell id="186" value="&lt;div&gt;&lt;b&gt;&lt;font&gt;&amp;lt;&amp;lt; Entity &amp;gt;&amp;gt;&lt;/font&gt;&lt;/b&gt;&lt;/div&gt;&lt;b&gt;Payment&lt;/b&gt;" style="swimlane;fontStyle=0;childLayout=stackLayout;horizontal=1;startSize=40;fillColor=none;horizontalStack=0;resizeParent=1;resizeParentMax=0;resizeLast=0;collapsible=1;marginBottom=0;whiteSpace=wrap;html=1;fontSize=13;" vertex="1" parent="1">
                    <mxGeometry x="-750" y="32" width="180" height="146" as="geometry"/>
                </mxCell>
                <mxCell id="187" value="+ Payment_id: string , PK" style="text;strokeColor=#000000;fillColor=#fff2cc;align=left;verticalAlign=top;spacingLeft=4;spacingRight=4;overflow=hidden;rotatable=0;points=[[0,0.5],[1,0.5]];portConstraint=eastwest;whiteSpace=wrap;html=1;fontSize=13;" vertex="1" parent="186">
                    <mxGeometry y="40" width="180" height="26" as="geometry"/>
                </mxCell>
                <mxCell id="188" value="+ Payment_Method: string" style="text;strokeColor=none;fillColor=none;align=left;verticalAlign=top;spacingLeft=4;spacingRight=4;overflow=hidden;rotatable=0;points=[[0,0.5],[1,0.5]];portConstraint=eastwest;whiteSpace=wrap;html=1;fontSize=13;" vertex="1" parent="186">
                    <mxGeometry y="66" width="180" height="26" as="geometry"/>
                </mxCell>
                <mxCell id="189" value="+ Payment_Status: string" style="text;strokeColor=none;fillColor=none;align=left;verticalAlign=top;spacingLeft=4;spacingRight=4;overflow=hidden;rotatable=0;points=[[0,0.5],[1,0.5]];portConstraint=eastwest;whiteSpace=wrap;html=1;fontSize=13;" vertex="1" parent="186">
                    <mxGeometry y="92" width="180" height="26" as="geometry"/>
                </mxCell>
                <mxCell id="190" value="+ Bill_id: string , FK" style="text;strokeColor=#000000;fillColor=#f8cecc;align=left;verticalAlign=top;spacingLeft=4;spacingRight=4;overflow=hidden;rotatable=0;points=[[0,0.5],[1,0.5]];portConstraint=eastwest;whiteSpace=wrap;html=1;fontSize=13;" vertex="1" parent="186">
                    <mxGeometry y="118" width="180" height="28" as="geometry"/>
                </mxCell>
                <mxCell id="191" value="" style="endArrow=none;html=1;rounded=0;exitX=0.5;exitY=1;exitDx=0;exitDy=0;entryX=0.5;entryY=0;entryDx=0;entryDy=0;" edge="1" parent="1" source="186" target="178">
                    <mxGeometry width="50" height="50" relative="1" as="geometry">
                        <mxPoint x="-577" y="226" as="sourcePoint"/>
                        <mxPoint x="-330" y="225" as="targetPoint"/>
                    </mxGeometry>
                </mxCell>
                <mxCell id="192" value="0..*" style="text;html=1;align=center;verticalAlign=middle;resizable=0;points=[];autosize=1;strokeColor=none;fillColor=none;" vertex="1" parent="1">
                    <mxGeometry x="-660" y="178" width="40" height="30" as="geometry"/>
                </mxCell>
                <mxCell id="193" value="1" style="text;html=1;align=center;verticalAlign=middle;resizable=0;points=[];autosize=1;strokeColor=none;fillColor=none;" vertex="1" parent="1">
                    <mxGeometry x="-660" y="272" width="30" height="30" as="geometry"/>
                </mxCell>
                <mxCell id="194" value="&lt;div&gt;&lt;b&gt;&lt;font&gt;&amp;lt;&amp;lt; Entity &amp;gt;&amp;gt;&lt;/font&gt;&lt;/b&gt;&lt;/div&gt;&lt;b&gt;Graduation&lt;/b&gt;" style="swimlane;fontStyle=0;childLayout=stackLayout;horizontal=1;startSize=40;fillColor=none;horizontalStack=0;resizeParent=1;resizeParentMax=0;resizeLast=0;collapsible=1;marginBottom=0;whiteSpace=wrap;html=1;fontSize=13;" vertex="1" parent="1">
                    <mxGeometry x="285" y="-470" width="180" height="232" as="geometry"/>
                </mxCell>
                <mxCell id="195" value="+ ID: integer , PK" style="text;strokeColor=#000000;fillColor=#fff2cc;align=left;verticalAlign=top;spacingLeft=4;spacingRight=4;overflow=hidden;rotatable=0;points=[[0,0.5],[1,0.5]];portConstraint=eastwest;whiteSpace=wrap;html=1;fontSize=13;" vertex="1" parent="194">
                    <mxGeometry y="40" width="180" height="26" as="geometry"/>
                </mxCell>
                <mxCell id="196" value="+ status" style="text;strokeColor=none;fillColor=none;align=left;verticalAlign=top;spacingLeft=4;spacingRight=4;overflow=hidden;rotatable=0;points=[[0,0.5],[1,0.5]];portConstraint=eastwest;whiteSpace=wrap;html=1;fontSize=13;" vertex="1" parent="194">
                    <mxGeometry y="66" width="180" height="26" as="geometry"/>
                </mxCell>
                <mxCell id="197" value="&amp;nbsp;+ date" style="text;strokeColor=none;fillColor=none;align=left;verticalAlign=top;spacingLeft=4;spacingRight=4;overflow=hidden;rotatable=0;points=[[0,0.5],[1,0.5]];portConstraint=eastwest;whiteSpace=wrap;html=1;fontSize=13;" vertex="1" parent="194">
                    <mxGeometry y="92" width="180" height="28" as="geometry"/>
                </mxCell>
                <mxCell id="198" value="+ Semester_id: integer , Fk" style="text;strokeColor=#000000;fillColor=#f8cecc;align=left;verticalAlign=top;spacingLeft=4;spacingRight=4;overflow=hidden;rotatable=0;points=[[0,0.5],[1,0.5]];portConstraint=eastwest;whiteSpace=wrap;html=1;fontSize=13;" vertex="1" parent="194">
                    <mxGeometry y="120" width="180" height="28" as="geometry"/>
                </mxCell>
                <mxCell id="199" value="+ Student_id: string , FK" style="text;strokeColor=#000000;fillColor=#f8cecc;align=left;verticalAlign=top;spacingLeft=4;spacingRight=4;overflow=hidden;rotatable=0;points=[[0,0.5],[1,0.5]];portConstraint=eastwest;whiteSpace=wrap;html=1;fontSize=13;" vertex="1" parent="194">
                    <mxGeometry y="148" width="180" height="28" as="geometry"/>
                </mxCell>
                <mxCell id="200" value="+ Curr_id: , FK" style="text;strokeColor=#000000;fillColor=#f8cecc;align=left;verticalAlign=top;spacingLeft=4;spacingRight=4;overflow=hidden;rotatable=0;points=[[0,0.5],[1,0.5]];portConstraint=eastwest;whiteSpace=wrap;html=1;fontSize=13;" vertex="1" parent="194">
                    <mxGeometry y="176" width="180" height="28" as="geometry"/>
                </mxCell>
                <mxCell id="201" value="+ Grade_Semester_id: FK" style="text;strokeColor=#000000;fillColor=#f8cecc;align=left;verticalAlign=top;spacingLeft=4;spacingRight=4;overflow=hidden;rotatable=0;points=[[0,0.5],[1,0.5]];portConstraint=eastwest;whiteSpace=wrap;html=1;fontSize=13;" vertex="1" parent="194">
                    <mxGeometry y="204" width="180" height="28" as="geometry"/>
                </mxCell>
                <mxCell id="202" value="" style="endArrow=none;html=1;rounded=0;entryX=1;entryY=0.5;entryDx=0;entryDy=0;exitX=0;exitY=0.5;exitDx=0;exitDy=0;" edge="1" parent="1" source="123" target="201">
                    <mxGeometry width="50" height="50" relative="1" as="geometry">
                        <mxPoint x="350" y="-140" as="sourcePoint"/>
                        <mxPoint x="400" y="-190" as="targetPoint"/>
                    </mxGeometry>
                </mxCell>
                <mxCell id="203" value="1" style="text;html=1;align=center;verticalAlign=middle;resizable=0;points=[];autosize=1;strokeColor=none;fillColor=none;" vertex="1" parent="1">
                    <mxGeometry x="665" y="-220" width="30" height="30" as="geometry"/>
                </mxCell>
                <mxCell id="204" value="1" style="text;html=1;align=center;verticalAlign=middle;resizable=0;points=[];autosize=1;strokeColor=none;fillColor=none;" vertex="1" parent="1">
                    <mxGeometry x="465" y="-280" width="30" height="30" as="geometry"/>
                </mxCell>
            </root>
        </mxGraphModel>
    </diagram>
</mxfile>